<svg width="90" height="68" viewBox="0 0 90 68" fill="none" xmlns="http://www.w3.org/2000/svg">
<path d="M73.125 40.5531V52.7875C73.125 57.2313 70.5094 61.1969 66.4594 63.0531C61.5375 65.3031 54.0844 67.75 45 67.75C35.9156 67.75 28.4625 65.3031 23.5125 63.0531C19.4906 61.1969 16.875 57.2313 16.875 52.7875V40.5531L36.8719 49.6937C39.4312 50.875 42.1875 51.4656 45 51.4656C47.8125 51.4656 50.5687 50.875 53.1281 49.6937L73.125 40.5531ZM84.375 35.4062V53.6875C84.375 55.2344 83.1094 56.5 81.5625 56.5C80.0156 56.5 78.75 55.2344 78.75 53.6875V37.9938L84.375 35.4062Z" fill="#1E3A8A"/>
<path d="M39.2006 44.5862C41.0209 45.4177 42.9988 45.848 45 45.848C47.0012 45.848 48.9791 45.4177 50.7994 44.5862L86.7178 28.1669C88.7428 27.2415 90 25.2812 90 23.0509C90 20.8206 88.7428 18.8575 86.7178 17.9322L50.7994 1.5156C48.9799 0.682943 47.0024 0.251953 45.0014 0.251953C43.0004 0.251953 41.0229 0.682943 39.2034 1.5156L3.28219 17.9294C1.25719 18.8575 0 20.8178 0 23.0481C0 25.2784 1.25719 27.2387 3.28219 28.1669L39.2006 44.5862Z" fill="#1E3A8A"/>
</svg>
