<svg width="80" height="90" viewBox="0 0 80 90" fill="none" xmlns="http://www.w3.org/2000/svg">
<path d="M40 0C24.1858 0 10.9961 12.7389 10.9961 29.0039C10.9961 35.1918 12.8555 40.7095 16.424 45.88L37.7804 79.2046C38.8165 80.8246 41.1856 80.8214 42.2196 79.2046L63.6686 45.7666C67.1603 40.8305 69.0039 35.0344 69.0039 29.0039C69.0039 13.0112 55.9928 0 40 0ZM40 42.1875C32.7309 42.1875 26.8164 36.273 26.8164 29.0039C26.8164 21.7348 32.7309 15.8203 40 15.8203C47.2691 15.8203 53.1836 21.7348 53.1836 29.0039C53.1836 36.273 47.2691 42.1875 40 42.1875Z" fill="#1E3A8A"/>
<path d="M60.6128 60.5908L47.3359 81.3483C43.8992 86.7065 36.0817 86.6889 32.6615 81.3534L19.3629 60.5963C7.66223 63.3015 0.449219 68.2573 0.449219 74.1796C0.449219 84.4561 20.8272 89.9999 40 89.9999C59.1728 89.9999 79.5508 84.4561 79.5508 74.1796C79.5508 68.2531 72.3278 63.2947 60.6128 60.5908Z" fill="#1E3A8A"/>
</svg>
