<svg width="90" height="90" viewBox="0 0 90 90" fill="none" xmlns="http://www.w3.org/2000/svg">
<path d="M47.7964 26.9506C47.1332 26.2722 46.2664 25.8291 45.3281 25.689C44.3898 25.5489 43.4314 25.7193 42.5989 26.1743C40.809 27.1838 39.3706 28.7164 38.4765 30.5666C38.1012 31.2596 37.798 31.9893 37.5717 32.7443C36.9465 34.8577 37.0832 37.6139 38.8076 38.9961C40.6912 40.5068 43.8701 39.8688 45.6589 38.3259C46.9291 37.1807 48.0269 35.8577 48.9182 34.3981C49.2235 33.0754 49.5128 31.7173 49.7796 30.4284C49.733 30.3632 49.6916 30.2944 49.6558 30.2227C49.2745 29.0127 48.6407 27.8974 47.7964 26.9506ZM38.8591 2.21823L35.1899 4.8218H54.8051L51.2373 2.29216C49.5094 0.832061 47.3239 0.0247262 45.0618 0.0109222C42.7998 -0.00288184 40.6046 0.777721 38.8591 2.21662V2.21823ZM78.7499 37.5239L88.9698 29.0302L78.7499 21.7852V37.5239Z" fill="#1E3A8A"/>
<path d="M14.4482 8.10474L14.4643 40.1962L38.8559 60.4671C40.5858 61.895 42.7591 62.6758 45.0022 62.6753C47.2453 62.6747 49.4182 61.8927 51.1473 60.4638L75.5357 40.1946V8.04849C75.5309 8.08063 75.4666 8.03724 75.3589 8.03563H14.6411C14.6059 8.03351 14.5707 8.03854 14.5376 8.05042C14.5044 8.06229 14.474 8.08077 14.4482 8.10474ZM31.7604 20.6758C32.3032 20.1474 32.8672 19.6413 33.4511 19.1587C36 17.0249 39.03 15.5436 42.2794 14.8424C45.5288 14.1413 48.8999 14.2415 52.102 15.1344C55.173 16.1146 57.8654 18.0212 59.8097 20.5925C61.754 23.1639 62.855 26.2739 62.9614 29.4958C63.1971 33.2964 61.9583 37.0414 59.5029 39.9519C58.5738 41.122 57.3403 42.0135 55.9377 42.5284C54.5351 43.0433 53.0178 43.1616 51.5523 42.8704C50.9477 42.745 50.3746 42.4988 49.8674 42.1467C49.3601 41.7947 48.929 41.3439 48.6 40.8213C48.4911 40.63 48.3981 40.43 48.322 40.2235C48.1371 40.4003 47.9555 40.5867 47.7659 40.7522C46.0082 42.2353 43.788 43.0584 41.4884 43.0794C39.7892 43.1086 38.1318 42.5512 36.7955 41.5012C33.7114 39.0326 33.6279 34.7447 34.4925 31.823C34.7818 30.8506 35.1739 29.9105 35.6593 29.0185C36.8651 26.5854 38.7932 24.5843 41.1798 23.289C42.6274 22.5381 44.278 22.2728 45.888 22.5321C47.4979 22.7914 48.9818 23.5616 50.1204 24.729C50.3438 24.9653 50.5543 25.2128 50.7504 25.4715C50.9207 24.5555 51.022 23.9849 51.0236 23.9624C51.0603 23.7545 51.1376 23.5559 51.2511 23.3779C51.3646 23.1999 51.512 23.046 51.685 22.9249C51.8579 22.8039 52.053 22.7181 52.2592 22.6725C52.4653 22.6269 52.6784 22.6223 52.8862 22.659C53.0941 22.6957 53.2928 22.7731 53.4708 22.8865C53.6488 23 53.8027 23.1475 53.9237 23.3204C54.0447 23.4934 54.1305 23.6885 54.1762 23.8946C54.2218 24.1007 54.2264 24.3138 54.1896 24.5217C54.1318 24.8576 52.7239 32.8097 51.2839 38.2515C51.233 38.4011 51.2131 38.5595 51.2255 38.717C51.238 38.8745 51.2825 39.0279 51.3562 39.1676C51.5786 39.4749 51.9139 39.6812 52.2884 39.7413C53.1858 39.891 54.1071 39.7925 54.9526 39.4566C55.7981 39.1206 56.5357 38.56 57.0857 37.8353C58.9925 35.5542 59.9479 32.6265 59.7536 29.6597C59.6769 27.0949 58.8084 24.6166 57.2672 22.5649C55.726 20.5133 53.5877 18.9889 51.1457 18.2008C48.4554 17.4608 45.6254 17.3865 42.9 17.9842C40.1745 18.582 37.6354 19.834 35.5018 21.6321C34.9859 22.0612 34.4829 22.5096 34.0007 22.9788C31.5032 25.4088 27.5127 30.4521 28.8579 36.9288C29.3019 39.1525 30.3193 41.2215 31.8091 42.9309C33.2989 44.6403 35.2095 45.9308 37.3516 46.6746C44.8891 49.0788 55.7212 49.3697 61.4266 42.2742C61.5588 42.1097 61.7222 41.9728 61.9073 41.8714C62.0924 41.77 62.2957 41.7061 62.5055 41.6833C62.7153 41.6604 62.9276 41.6792 63.1302 41.7384C63.3328 41.7976 63.5217 41.8961 63.6862 42.0283C63.8508 42.1605 63.9876 42.3239 64.089 42.509C64.1904 42.6941 64.2543 42.8974 64.2772 43.1072C64.3 43.317 64.2813 43.5293 64.2221 43.7319C64.1629 43.9345 64.0644 44.1234 63.9321 44.2879C59.7118 49.5337 53.2896 51.4108 46.9896 51.4108C43.3874 51.3943 39.8087 50.8302 36.3761 49.7378C33.6818 48.8363 31.2749 47.2361 29.4013 45.1004C27.5276 42.9647 26.2542 40.37 25.7111 37.5813C24.5009 31.7538 26.7075 25.5921 31.7604 20.6758ZM90 88.1838V32.3533L56.4075 60.2726L90 88.1838ZM0 32.3533V88.1822L33.5925 60.2726L0 32.3533Z" fill="#1E3A8A"/>
<path d="M53.8926 62.3623L53.2015 62.9393C50.8944 64.8459 47.9951 65.889 45.0021 65.8893C42.0092 65.8896 39.1097 64.847 36.8022 62.9409L36.1063 62.3623L2.84167 90.0003H87.1588L53.8926 62.3623ZM1.02881 29.0302L11.2502 37.5255V21.7852L1.02881 29.0302Z" fill="#1E3A8A"/>
</svg>
