<svg width="24" height="24" viewBox="0 0 24 24" fill="none" xmlns="http://www.w3.org/2000/svg">
<path d="M7.89286 2.17537C7.88547 2.0112 7.87644 1.88889 7.87562 1.7674C7.87398 1.37257 7.87562 0.976918 7.87562 0.5C8.46499 0.555818 9.02154 0.569773 9.56248 0.666634C13.0922 1.29787 15.9455 3.01429 17.9763 6.00631C20.3518 9.50481 20.3765 14.155 18.0501 17.6986C16.1515 20.5905 13.6019 22.5835 10.1453 23.2172C9.01415 23.4249 7.84279 23.4151 6.64844 23.5078C6.64844 21.1167 6.64844 18.8429 6.64844 16.5026C7.06954 16.5026 7.4775 16.5182 7.88383 16.5002C9.46726 16.4287 10.6747 15.4872 11.118 13.9941C11.5498 12.5412 11.04 10.8748 9.83419 10.04C9.44264 9.76912 8.94191 9.64107 8.47402 9.50316C8.25814 9.43914 8.18098 9.37101 8.1859 9.1543C8.1974 8.69216 8.18919 8.22919 8.18919 7.71287C9.61009 7.75228 10.6715 8.41553 11.5703 9.41287C12.4888 10.4324 12.8434 11.6489 12.8008 13.0517C13.3614 13.0517 13.9015 13.0616 14.44 13.0386C14.5049 13.0361 14.6083 12.8514 14.614 12.7464C14.7667 9.91934 13.0339 7.26797 10.3513 6.28869C9.57562 6.00549 8.7523 5.85117 7.90353 5.62461C7.90353 5.18545 7.90353 4.65928 7.90353 4.05924C10.2906 4.21438 12.3362 5.07135 14.0123 6.76725C15.7173 8.49187 16.3255 10.6171 16.2213 13.0493C16.8131 13.0493 17.3811 13.0608 17.9475 13.0337C18.0116 13.0304 18.1125 12.8096 18.1166 12.6873C18.2053 9.9612 17.3779 7.56019 15.4669 5.5926C13.4845 3.55195 11.0729 2.38223 8.20807 2.21067C8.11531 2.20328 8.02255 2.18932 7.89286 2.17537Z" fill="#0B4877"/>
<path d="M7.44612 14.933C6.3314 14.9166 5.60002 14.1491 5.62054 13.0179C5.64106 11.8999 6.39871 11.1283 7.45844 11.1488C8.57316 11.1702 9.38006 11.9894 9.35462 13.0737C9.32835 14.1786 8.53869 14.9486 7.44612 14.933Z" fill="#0B4877"/>
</svg>
