<svg width="86" height="86" viewBox="0 0 86 86" fill="none" xmlns="http://www.w3.org/2000/svg">
<path d="M2.5965 36.4098C1.089 32.3301 0.0252003 28.1631 0.2907 23.7288C0.468 20.9802 1.5327 18.6753 3.5721 16.7241C5.6997 14.6847 7.8282 12.4671 9.9567 10.4286C12.7053 7.68004 16.2522 7.68004 19.0017 10.4286L24.1443 15.5712C25.8291 17.256 27.513 18.8526 29.1096 20.5374C32.0355 23.4633 32.0355 26.9211 29.1096 29.8479C27.0702 31.9755 24.9426 34.0149 22.8141 36.0552C22.2822 36.5862 22.1931 37.0299 22.4595 37.7391C23.8779 41.1087 25.8291 44.0355 28.134 46.8732C32.6565 52.4595 37.8882 57.4248 44.0064 61.3272C45.3366 62.1246 46.755 62.7447 48.1734 63.4548C48.8835 63.8094 49.3272 63.7203 49.9473 63.1002C51.9867 60.9717 54.1143 58.8432 56.2437 56.7156C58.9923 53.967 62.5392 53.967 65.2887 56.7156C68.6574 60.0852 72.1152 63.4548 75.4857 66.9126C78.3225 69.7503 78.3225 73.2972 75.4857 76.1349C73.5345 78.0853 71.4951 79.9473 69.7212 81.9867C67.0617 84.9135 63.7812 85.8882 59.9679 85.7109C54.4698 85.4454 49.3272 83.5833 44.4501 81.1893C33.543 75.8685 24.1443 68.5083 16.3404 59.1978C10.4886 52.3704 5.6997 44.8338 2.5965 36.4098ZM85.7295 38.2791C83.7072 18.3036 67.8564 2.39974 47.9061 0.291042C45.4977 0.0363419 43.3854 1.88674 43.3854 4.30864V4.38604C43.3854 6.46054 44.9586 8.18404 47.0214 8.40184C63.0999 10.0965 75.9699 22.8945 77.6844 39.0279C77.9058 41.1069 79.6545 42.6855 81.7452 42.663C84.0942 42.6369 85.9662 40.6164 85.7295 38.2791ZM43.3854 19.6167V19.6734C43.3854 21.6066 44.7399 23.3247 46.6461 23.6514C50.5611 24.3219 54.1845 26.193 57.0411 29.0496C59.8977 31.9062 61.7688 35.5296 62.4402 39.4446C62.766 41.3508 64.4841 42.7053 66.4182 42.7053H66.4542C68.9472 42.7053 70.884 40.4625 70.4475 38.0073C68.4225 26.6061 59.4126 17.5926 48.0681 15.6198C45.6174 15.1932 43.3854 17.13 43.3854 19.6167Z" fill="#1E3A8A"/>
</svg>
