<svg width="90" height="90" viewBox="0 0 90 90" fill="none" xmlns="http://www.w3.org/2000/svg">
<g clip-path="url(#clip0_207_25)">
<g clip-path="url(#clip1_207_25)">
<path d="M82.4999 18.7502H63.7501V15.0001C63.7501 10.8637 60.3865 7.5 56.25 7.5H33.75C29.6137 7.5 26.2499 10.8636 26.2499 15.0001V18.75H7.50006C3.36357 18.7502 7.79646e-08 22.1137 7.79646e-08 26.2501V37.5001C7.79646e-08 41.6365 3.36357 45.0001 7.50006 45.0001H37.5001V43.1251C37.5 42.8788 37.5483 42.6349 37.6425 42.4073C37.7367 42.1797 37.8748 41.973 38.0489 41.7988C38.2231 41.6247 38.4299 41.4866 38.6574 41.3924C38.885 41.2982 39.1289 41.2498 39.3752 41.25H50.6252C50.8715 41.2498 51.1154 41.2982 51.3429 41.3924C51.5705 41.4866 51.7773 41.6247 51.9514 41.7988C52.1255 41.973 52.2637 42.1797 52.3578 42.4073C52.452 42.6349 52.5004 42.8788 52.5002 43.1251V45.0001H82.5003C86.6364 45.0001 90 41.6365 90 37.5001V26.2501C90 22.1137 86.6364 18.7502 82.4999 18.7502ZM56.25 18.7502H33.75V15.0001H56.25V18.7502ZM88.9599 47.0234C88.6473 46.8684 88.2977 46.8036 87.9503 46.8363C87.6029 46.8689 87.2715 46.9977 86.9933 47.2083C85.6603 48.2173 84.1075 48.7501 82.4998 48.7501H52.5001V54.3751C52.5002 54.6213 52.4518 54.8652 52.3577 55.0928C52.2635 55.3204 52.1254 55.5271 51.9512 55.7013C51.7771 55.8754 51.5703 56.0135 51.3427 56.1077C51.1152 56.2019 50.8713 56.2503 50.625 56.2501H39.375C39.1287 56.2503 38.8848 56.2019 38.6573 56.1077C38.4297 56.0135 38.2229 55.8754 38.0488 55.7013C37.8746 55.5271 37.7365 55.3204 37.6423 55.0928C37.5482 54.8652 37.4998 54.6213 37.4999 54.3751V48.7501H7.50006C5.89236 48.7501 4.33969 48.2173 3.00656 47.2083C2.7291 46.9961 2.39755 46.8662 2.04978 46.8335C1.70202 46.8008 1.35208 46.8666 1.03992 47.0234C0.727488 47.1788 0.464622 47.4183 0.280902 47.7149C0.0971825 48.0116 -0.000100536 48.3536 7.79646e-08 48.7026V75.0002C7.79646e-08 79.1365 3.36357 82.5002 7.50006 82.5002H82.5001C86.6364 82.5002 90.0002 79.1367 90.0002 75.0002V48.7026C90.0002 48.3536 89.9028 48.0116 89.7191 47.7149C89.5353 47.4182 89.2724 47.1787 88.9599 47.0234Z" fill="#1E3A8A"/>
</g>
</g>
<defs>
<clipPath id="clip0_207_25">
<rect width="90" height="90" fill="white"/>
</clipPath>
<clipPath id="clip1_207_25">
<rect width="90" height="90" fill="white"/>
</clipPath>
</defs>
</svg>
