<svg width="80" height="90" viewBox="0 0 80 90" fill="none" xmlns="http://www.w3.org/2000/svg">
<path d="M57.5781 62.4023H53.1511C52.6969 69.2631 46.9739 74.707 40 74.707C33.0261 74.707 27.3031 69.2631 26.8489 62.4023H22.4219C10.3062 62.4023 0.449219 72.2593 0.449219 84.375V87.3633C0.449219 88.8195 1.62977 90 3.08594 90H76.9141C78.3702 90 79.5508 88.8195 79.5508 87.3633V84.375C79.5508 72.2593 69.6938 62.4023 57.5781 62.4023ZM17.1484 39.5508V29.0039C14.2359 29.0039 11.875 31.3648 11.875 34.2773C11.875 37.1899 14.2359 39.5508 17.1484 39.5508ZM46.9247 17.4716C47.8746 16.5215 49.3872 16.4378 50.4363 17.277L58.5031 23.7305H62.8516V22.8516C62.8516 10.231 52.6206 0 40 0C27.3794 0 17.1484 10.231 17.1484 22.8516V23.7305H31.8147C34.6209 23.7305 37.3996 23.1777 39.9922 22.1038C42.5848 21.0299 44.9405 19.4559 46.9247 17.4716Z" fill="#1E3A8A"/>
<path d="M32.0898 60.1108V61.523C32.0898 65.8917 35.6313 69.4332 40 69.4332C44.3687 69.4332 47.9102 65.8917 47.9102 61.523V60.1108C45.4441 61.0235 42.7795 61.523 40 61.523C37.2205 61.523 34.5559 61.0237 32.0898 60.1108ZM39.1211 48.3395C39.1211 46.8833 40.3016 45.7027 41.7578 45.7027H56.114C57.055 43.5494 57.5781 41.1718 57.5781 38.6715V29.7434L48.9035 22.8037C44.1186 26.8173 38.1341 29.0035 31.814 29.0035H22.4219V38.6715C22.4219 48.3795 30.2918 56.2496 40 56.2496C44.9168 56.2496 49.3614 54.2301 52.5517 50.9762H41.7578C40.3016 50.9762 39.1211 49.7956 39.1211 48.3395Z" fill="#1E3A8A"/>
<path d="M62.8517 39.5508H65.4884V41.3086C65.4884 43.7317 63.517 45.7031 61.0938 45.7031H56.1141C55.2568 47.6627 54.0497 49.4497 52.5518 50.9766H61.0938C66.4248 50.9766 70.7618 46.6395 70.7618 41.3086V34.2773C70.7618 31.3648 68.4009 29.0039 65.4884 29.0039H62.8517V39.5508Z" fill="#1E3A8A"/>
</svg>
